#!OML:ASF F:\VICON\USERDATA\INSTALL\SteveWalk\SteveWalk.ASF
:FULLY-SPECIFIED
:DEGREES
137
root 0.568265 16.2562 -14.5692 17.8533 -3.46003 -0.460516
lowerback -16.3694 1.78424 0.221503
upperback -4.75977 2.2665 0.868692
thorax 4.06857 1.12113 1.23099
lowerneck -4.45556 -0.974197 -0.221464
upperneck 12.0791 -1.0281 -2.22622
head 4.80565 -0.631079 -0.776456
rclavicle -1.50238e-014 -2.38542e-015
rhumerus -15.8084 10.5866 -82.0748
rradius 60.0209
rwrist -17.3867
rhand -16.9374 -31.8019
rfingers 7.12502
rthumb 9.29572 -61.5769
lclavicle -1.50238e-014 -2.38542e-015
lhumerus -57.0606 17.9805 67.5507
lradius 14.4409
lwrist -30.3365
lhand -7.73748 -15.6342
lfingers 7.12502
lthumb 18.1614 13.5379
rfemur -5.86715 -7.03393 22.7305
rtibia 21.4206
rfoot -25.5709 17.8099
rtoes -0.555016
lfemur -48.0711 6.51053 -22.7094
ltibia 13.5221
lfoot -9.47219 1.79206
ltoes -7.98894
138
root 0.579392 16.2208 -14.3428 17.8586 -4.05023 -0.537148
lowerback -16.3235 1.96759 0.178616
upperback -4.67441 2.51763 0.803261
thorax 4.13109 1.24411 1.23542
lowerneck -4.88893 -0.954971 -0.157185
upperneck 12.0681 -1.00483 -2.22396
head 4.89076 -0.618642 -0.790221
rclavicle -2.54196e-014 -8.74653e-015
rhumerus -15.1328 10.7571 -81.8801
rradius 60.6995
rwrist -17.2648
rhand -17.1247 -31.2984
rfingers 7.12502
rthumb 9.11499 -61.0815
lclavicle -2.54196e-014 -8.74653e-015
lhumerus -57.6648 18.1432 66.9745
lradius 14.3492
lwrist -29.8038
lhand -8.75296 -15.9933
lfingers 7.12502
lthumb 17.1842 13.2668
rfemur -4.63852 -6.54455 22.3726
rtibia 20.7194
rfoot -24.975 18.4023
rtoes -1.69401
lfemur -48.3634 8.04169 -23.8368
ltibia 12.0776
lfoot -10.2784 -0.483625
ltoes -7.33612
139
root 0.590882 16.1938 -14.1118 18.0191 -4.49042 -0.653152
lowerback -16.4681 2.08842 0.247003
upperback -4.67981 2.66656 0.743072
thorax 4.20589 1.3168 1.16823
lowerneck -5.17379 -0.915484 -0.282381
upperneck 12.487 -0.94337 -2.11599
head 4.58064 -0.598723 -0.655868
rclavicle 1.05853e-014 3.97569e-016
rhumerus -14.6832 10.9938 -81.7726
rradius 61.4134
rwrist -17.0806
rhand -17.2185 -31.2501
rfingers 7.12502
rthumb 9.02447 -61.0371
lclavicle 1.05853e-014 3.97569e-016
lhumerus -58.5168 18.609 65.8845
lradius 14.1892
lwrist -29.8993
lhand -9.77874 -17.0363
lfingers 7.12502
lthumb 16.1967 12.307
rfemur -3.6663 -6.36143 22.0892
rtibia 20.1641
rfoot -24.3161 19.2
rtoes -3.56441
lfemur -48.6685 9.29998 -24.8759
ltibia 10.9722
lfoot -10.7026 -2.65406
ltoes -6.22881
140
root 0.600829 16.1675 -13.8817 18.1052 -4.74268 -0.707504
lowerback -16.5942 2.10804 0.271044
upperback -4.64381 2.68961 0.682015
thorax 4.31507 1.32703 1.10111
lowerneck -5.30012 -0.839458 -0.442247
upperneck 12.4413 -0.852823 -1.88704
head 4.59083 -0.548635 -0.554779
rclavicle 2.60719e-014 1.27222e-014
rhumerus -14.259 11.157 -81.7331
rradius 61.942
rwrist -16.8662
rhand -17.4188 -31.2146
rfingers 7.12502
rthumb 8.83122 -61.0098
lclavicle 2.60719e-014 1.27222e-014
lhumerus -59.2455 18.9933 64.9864
lradius 14.1073
lwrist -29.6703
lhand -10.2368 -16.9999
lfingers 7.12502
lthumb 15.7556 12.3789
rfemur -2.72652 -6.05811 21.8411
rtibia 19.7809
rfoot -23.8698 19.4256
rtoes -5.41047
lfemur -48.8285 10.1449 -25.7535
ltibia 10.1675
lfoot -10.8321 -4.25098
ltoes -6.81115
